<?xml version="1.0" encoding="utf-8"?>
<!-- Generator: Adobe Illustrator 15.0.0, SVG Export Plug-In . SVG Version: 6.00 Build 0)  -->
<!DOCTYPE svg PUBLIC "-//W3C//DTD SVG 1.1//EN" "http://www.w3.org/Graphics/SVG/1.1/DTD/svg11.dtd">
<svg version="1.1" id="Layer_1" xmlns="http://www.w3.org/2000/svg" xmlns:xlink="http://www.w3.org/1999/xlink" x="0px" y="0px"
	 width="355.38px" height="47.866px" viewBox="0 0 355.38 47.866" enable-background="new 0 0 355.38 47.866" xml:space="preserve">
<g>
	<g>
		<g>
			<g>
				<linearGradient id="SVGID_1_" gradientUnits="userSpaceOnUse" x1="-0.2979" y1="20.437" x2="70.1533" y2="20.437">
					<stop  offset="0" style="stop-color:#F47920"/>
					<stop  offset="0.0569" style="stop-color:#F58020"/>
					<stop  offset="0.1986" style="stop-color:#F78D1E"/>
					<stop  offset="0.3445" style="stop-color:#F8951D"/>
					<stop  offset="0.5" style="stop-color:#F8981D"/>
					<stop  offset="1" style="stop-color:#FDB515"/>
				</linearGradient>
				<path fill="url(#SVGID_1_)" d="M19.52,39.905C7.745,39.905,0,31.516,0,20.491C0,9.896,8.067,0.969,19.415,0.969
					c6.562,0,10.593,1.829,14.467,5.11l-4.196,5.002c-2.904-2.476-5.756-4.036-10.542-4.036c-6.935,0-12.208,6.023-12.208,13.338
					c0,7.799,5.112,13.499,12.802,13.499c3.548,0,6.777-1.127,9.088-2.849v-7.045h-9.626v-5.756h16.027v15.813
					C31.512,37.217,26.188,39.905,19.52,39.905z"/>
			</g>
			<path fill="#FFFFFF" d="M90.127,17.426c7.957,1.935,12.099,4.786,12.099,11.078c0,7.099-5.541,11.295-13.446,11.295
				c-5.752,0-11.187-1.99-15.701-6.023l3.976-4.733c3.603,3.118,7.21,4.895,11.886,4.895c4.09,0,6.671-1.883,6.671-4.786
				c0-2.745-1.509-4.196-8.499-5.809c-8.012-1.936-12.531-4.303-12.531-11.295c0-6.562,5.379-10.97,12.853-10.97
				c5.485,0,9.843,1.666,13.662,4.733l-3.552,5.001c-3.387-2.528-6.774-3.872-10.216-3.872c-3.874,0-6.133,1.988-6.133,4.517
				C81.196,14.415,82.917,15.705,90.127,17.426z"/>
			<path fill="#FFFFFF" d="M124.079,39.852c-4.676,0-7.634-2.365-9.627-5.002v13.016h-6.506V10.864h6.506v4.733
				c2.099-2.959,5.057-5.324,9.627-5.324c6.723,0,13.234,5.324,13.234,14.79S130.857,39.852,124.079,39.852z M122.574,15.919
				c-4.409,0-8.283,3.603-8.283,9.144c0,5.539,3.875,9.144,8.283,9.144c4.463,0,8.122-3.497,8.122-9.144
				C130.696,19.469,126.987,15.919,122.574,15.919z"/>
			<path fill="#FFFFFF" d="M156.326,39.905c-8.66,0-15.061-6.614-15.061-14.734c0-8.175,6.456-14.897,15.167-14.897
				c8.715,0,15.112,6.615,15.112,14.79C171.544,33.184,165.092,39.905,156.326,39.905z M156.326,15.974
				c-5.218,0-8.55,4.086-8.55,9.089c0,5.055,3.603,9.196,8.656,9.196c5.273,0,8.605-4.087,8.605-9.089
				C165.037,20.114,161.434,15.974,156.326,15.974z"/>
			<path fill="#FFFFFF" d="M185.016,30.386c0,2.529,1.288,3.551,3.493,3.551c1.453,0,2.742-0.322,4.035-0.969v5.324
				c-1.615,0.915-3.442,1.451-5.863,1.451c-4.785,0-8.176-2.096-8.176-8.335V16.458h-3.604v-5.593h3.604V3.067h6.511v7.797h7.634
				v5.593h-7.634V30.386z"/>
			<path fill="#FFFFFF" d="M216.119,39.905c-10.97,0-19.144-8.55-19.144-19.414c0-10.756,8.012-19.522,19.415-19.522
				c6.935,0,11.131,2.42,14.734,5.862l-4.247,4.894c-3.015-2.798-6.239-4.68-10.543-4.68c-7.205,0-12.424,5.917-12.424,13.338
				c0,7.422,5.219,13.446,12.424,13.446c4.625,0,7.584-1.882,10.81-4.894l4.252,4.303C227.466,37.324,223.164,39.905,216.119,39.905
				z"/>
			<path fill="#FFFFFF" d="M242.758,39.26h-6.507V0h6.507v15.275c1.831-2.689,4.468-5.002,8.876-5.002
				c6.401,0,10.11,4.302,10.11,10.917v18.07h-6.507V23.127c0-4.411-2.204-6.939-6.079-6.939c-3.764,0-6.4,2.636-6.4,7.045V39.26z"/>
			<path fill="#FFFFFF" d="M281.394,34.582c3.175,0,5.43-1.183,7.689-3.388l3.819,3.388c-2.688,3.228-6.401,5.323-11.615,5.323
				c-8.231,0-14.577-5.968-14.577-14.789c0-8.175,5.757-14.843,13.878-14.843c9.033,0,13.606,7.098,13.606,15.328
				c0,0.591-0.055,1.13-0.109,1.773h-20.868C273.971,32,277.198,34.582,281.394,34.582z M287.74,23.073
				c-0.428-4.195-2.903-7.476-7.206-7.476c-3.98,0-6.778,3.064-7.367,7.476H287.74z"/>
			<path fill="#FFFFFF" d="M312.552,39.905c-8.444,0-14.684-6.614-14.684-14.734c0-8.122,6.239-14.897,14.738-14.897
				c5.375,0,8.712,1.99,11.348,4.894l-4.035,4.356c-1.988-2.096-4.087-3.548-7.367-3.548c-4.731,0-8.173,4.086-8.173,9.089
				c0,5.109,3.493,9.196,8.495,9.196c3.064,0,5.324-1.452,7.367-3.55l3.925,3.872C321.373,37.701,318.092,39.905,312.552,39.905z"/>
			<path fill="#FFFFFF" d="M355.38,39.26h-7.528l-8.555-12.263l-3.98,4.142v8.121h-6.506V0h6.506v23.45l11.78-12.585h7.906
				L343.71,22.428L355.38,39.26z"/>
		</g>
	</g>
	<g>
		<linearGradient id="SVGID_2_" gradientUnits="userSpaceOnUse" x1="-0.2979" y1="25.0767" x2="70.1358" y2="25.0767">
			<stop  offset="0" style="stop-color:#F47920"/>
			<stop  offset="0.0569" style="stop-color:#F58020"/>
			<stop  offset="0.1986" style="stop-color:#F78D1E"/>
			<stop  offset="0.3445" style="stop-color:#F8951D"/>
			<stop  offset="0.5" style="stop-color:#F8981D"/>
			<stop  offset="1" style="stop-color:#FDB515"/>
		</linearGradient>
		<path fill="url(#SVGID_2_)" d="M65.314,24.196c0.026,0.29,0.042,0.583,0.042,0.88c0,5.555-4.503,10.059-10.06,10.059
			c-5.555,0-10.059-4.504-10.059-10.059c0-5.556,4.504-10.06,10.059-10.06c2.564,0,4.896,0.967,6.673,2.546l-6.673,6.673
			l-3.346-3.346L48.64,24.2l6.657,6.656l12.947-12.947c-2.524-4.551-7.374-7.634-12.947-7.634c-8.174,0-14.801,6.626-14.801,14.802
			c0,2.73,0.753,5.28,2.043,7.478l-1.425,6.705l6.706-1.425c2.196,1.29,4.746,2.043,7.477,2.043c8.175,0,14.801-6.627,14.801-14.801
			c0-1.698-0.3-3.321-0.825-4.839L65.314,24.196z"/>
	</g>
</g>
</svg>
