<?xml version="1.0" encoding="utf-8"?>
<!-- Generator: Adobe Illustrator 19.0.0, SVG Export Plug-In . SVG Version: 6.00 Build 0)  -->
<svg version="1.1" id="Layer_1" xmlns="http://www.w3.org/2000/svg" xmlns:xlink="http://www.w3.org/1999/xlink" x="0px" y="0px"
	 viewBox="0 0 67.6 67.6" enable-background="new 0 0 67.6 67.6" xml:space="preserve">
<g>
	
		<linearGradient id="XMLID_16_" gradientUnits="userSpaceOnUse" x1="-92.4826" y1="91.7687" x2="67.9067" y2="91.7687" gradientTransform="matrix(1 0 0 -1 0 125.5582)">
		<stop  offset="0" style="stop-color:#F47920"/>
		<stop  offset="0.1452" style="stop-color:#F6891F"/>
		<stop  offset="0.3168" style="stop-color:#F7941E"/>
		<stop  offset="0.5" style="stop-color:#F8981D"/>
		<stop  offset="1" style="stop-color:#FDB515"/>
	</linearGradient>
	<path id="XMLID_1_" fill="url(#XMLID_16_)" d="M56.7,31.1c0,0.5,0,1.1,0,2.2c0,12.5-10.4,22.9-22.9,22.9S10.9,45.8,10.9,33.2
		s10.4-22.9,22.9-22.9c6,0,10.9,2.2,15.3,6L33.8,31.6L26.2,24l-7.6,7.6l15.3,15.3l29.4-29.4C57.2,7.1,46.3,0,33.8,0
		C15.3,0,0,15.3,0,33.8c0,6,1.6,12,4.9,16.9L1.6,65.9l15.3-3.3c4.9,2.7,10.9,4.9,16.9,4.9c18.5,0,33.8-15.3,33.8-33.8
		c0-3.8-0.5-7.6-1.6-10.9L56.7,31.1z"/>
</g>
</svg>
